# AST/ASF file generated using VICON BodyLanguage
# -----------------------------------------------
:version 1.10
:name VICON
:units
  mass 1.0
  length 0.45
  angle deg
:documentation
   .ast/.asf automatically generated from VICON data using
   VICON BodyBuilder and BodyLanguage model FoxedUp or BRILLIANT.MOD
:root
   order TX TY TZ RX RY RZ
   axis XYZ
   position 0 0 0  
   orientation 0 0 0 
:bonedata
  begin
     id 1 
     name lhipjoint
     direction 0.630082 -0.636569 0.44472 
     length 2.82754 
     axis 0 0 0  XYZ
  end
  begin
     id 2 
     name lfemur
     direction 0.34202 -0.939693 0  
     length 7.26371  
     axis 0 0 20  XYZ
    dof rx ry rz
    limits (-160.0 20.0)
           (-70.0 70.0)
           (-60.0 70.0)
  end
  begin
     id 3 
     name ltibia
     direction 0.34202 -0.939693 0   
     length 7.88616   
     axis 0 0 20   XYZ
    dof rx
    limits (-10.0 170.0)
  end
  begin
     id 4 
     name lfoot
     direction 0.0603448 -0.165796 0.984312   
     length 1.77861   
     axis -90 7.62852e-016 20   XYZ
    dof rx rz
    limits (-45.0 90.0)
           (-70.0 20.0)
  end
  begin
     id 5 
     name ltoes
     direction 1.53577e-011 -4.21876e-011 1   
     length 0.902235   
     axis -90 7.62852e-016 20   XYZ
    dof rx
    limits (-90.0 20.0)
  end
  begin
     id 6 
     name rhipjoint
     direction -0.656778 -0.61817 0.431866   
     length 2.9117  
     axis 0 0 0  XYZ 
  end
  begin
     id 7 
     name rfemur
     direction -0.34202 -0.939693 0   
     length 6.81603   
     axis 0 0 -20   XYZ
    dof rx ry rz
    limits (-160.0 20.0)
           (-70.0 70.0)
           (-70.0 60.0)
  end
  begin
     id 8 
     name rtibia
     direction -0.34202 -0.939693 0   
     length 8.05997   
     axis 0 0 -20   XYZ
    dof rx
    limits (-10.0 170.0)
 end
 begin
     id 9 
     name rfoot
     direction -0.0862404 -0.236944 0.967688   
     length 1.84899  
     axis -90 -7.62852e-016 -20   XYZ
    dof rx rz
    limits (-45.0 90.0)
           (-20.0 70.0)
  end
  begin
     id 10 
     name rtoes
     direction -1.53561e-011 -4.21798e-011 1   
     length 0.931579   
     axis -90 -7.62852e-016 -20   XYZ
    dof rx
    limits (-90.0 20.0)
  end
  begin
     id 11 
     name lowerback
     direction -0.0110203 0.991769 -0.127564   
     length 2.05686   
     axis 0 0 0   XYZ
    dof rx ry rz
    limits (-20.0 45.0)
           (-30.0 30.0)
           (-30.0 30.0)
  end
  begin
     id 12 
     name upperback
     direction 0.0109719 0.99993 -0.00432479   
     length 2.06234   
     axis 0 0 0   XYZ
    dof rx ry rz
    limits (-20.0 45.0)
           (-30.0 30.0)
           (-30.0 30.0)
  end
  begin
     id 13 
     name thorax
     direction 0.0173308 0.998351 0.0547306   
     length 2.09856   
     axis 0 0 0   XYZ
    dof rx ry rz
    limits (-20.0 45.0)
           (-30.0 30.0)
           (-30.0 30.0)
  end
  begin
     id 14 
     name lowerneck
     direction -0.0311736 0.989033 0.144366   
     length 1.98151   
     axis 0 0 0   XYZ
    dof rx ry rz
    limits (-20.0 45.0)
           (-30.0 30.0)
           (-30.0 30.0)
  end
  begin
     id 15 
     name upperneck
     direction 0.0421057 0.975772 -0.214698   
     length 2.01457   
     axis 0 0 0   XYZ
    dof rx ry rz
    limits (-20.0 45.0)
           (-30.0 30.0)
           (-30.0 30.0)
  end
  begin
     id 16
     name head
     direction 0.0136911 0.995958 -0.0887718  
     length 2.03562  
     axis 0 0 0   XYZ
    dof rx ry rz
    limits (-20.0 45.0)
           (-30.0 30.0)
           (-30.0 30.0)
  end
  begin
     id 17 
     name lclavicle
     direction 0.915335 0.396201 0.0720134  
     length 4.16217  
     axis 0 0 0   XYZ
    dof ry rz
    limits (-20.0 10.0)
           (0.0 20.0)
  end
  begin
     id 18 
     name lhumerus
     direction 1 -4.48965e-011 6.383e-018   
     length 4.93042   
     axis -180 -30 -90   XYZ
    dof rx ry rz
    limits (-60.0 90.0)
           (-90.0 90.0)
           (-90.0 90.0)
  end
  begin
     id 19
     name lradius
     direction 1 -4.48972e-011 8.8689e-027   
     length 3.68177   
     axis -180 -30 -90   XYZ
    dof rx
    limits (-10.0 170.0)
  end
  begin
     id 20
     name lwrist
     direction 1 -4.48953e-011 1.17971e-026   
     length 1.84089   
     axis -7.69454e-015 90 90   XYZ
    dof ry
    limits (-180.0 0.0)
 end
  begin
     id 21 
     name lhand
     direction 1 -4.49027e-011 2.35802e-026   
     length 0.721479   
     axis -1.50533e-014 90 90   XYZ
    dof rx rz
    limits (-90.0 90.0)
           (-45.0 45.0)
  end
  begin
     id 22 
     name lfingers
     direction 1 -4.48915e-011 4.72027e-026   
     length 0.581675   
     axis -3.01059e-014 90 90   XYZ
    dof rx
    limits (0.0 90.0)
  end
  begin
     id 23
     name lthumb
     direction 0.707107 -6.34948e-011 0.707107   
     length 0.835172   
     axis -90 45 -5.12164e-014   XYZ
    dof rx rz
    limits (-45.0 45.0)
           (-45.0 45.0)
  end
  begin
     id 24 
     name rclavicle
     direction -0.882781 0.469197 0.0234974   
     length 3.95647  
     axis 0 0 0   XYZ 
    dof ry rz
    limits (-10.0 20.0)
           (-20.0 0.0)
  end
  begin
     id 25 
     name rhumerus
     direction -1 -4.48965e-011 -1.54906e-018  
     length 5.07905   
     axis -180 30 90   XYZ
    dof rx ry rz
    limits (-90.0 60.0)
           (-90.0 90.0)
           (-90.0 90.0)
  end
  begin
     id 26 
     name rradius
     direction -1 -4.48972e-011 5.47489e-027   
     length 3.54394   
     axis -180 30 90   XYZ
    dof rx
    limits (-10.0 170.0)
  end
  begin
     id 27 
     name rwrist
     direction -1 -4.48955e-011 1.17969e-026   
     length 1.77197   
     axis -7.69454e-015 -90 -90   XYZ
    dof ry
    limits (-180.0 0.0)
  end
  begin
     id 28
     name rhand
     direction -1 -4.48982e-011 2.35888e-026   
     length 0.681156   
     axis -1.50533e-014 -90 -90   XYZ
    dof rx rz
    limits (-90.0 90.0)
           (-45.0 45.0)
  end
  begin
     id 29
     name rfingers
     direction -1 -4.48955e-011 4.71877e-026   
     length 0.549165   
     axis -3.01059e-014 -90 -90   XYZ
    dof rx
    limits (0.0 90.0)
  end
  begin
     id 30
     name rthumb
     direction -0.707107 -6.3491e-011 0.707107   
     length 0.788495   
     axis -90 -45 5.12164e-014   XYZ
    dof rx rz
    limits (-45.0 45.0)
           (-45.0 45.0)
  end
:hierarchy
  begin
    root lhipjoint rhipjoint lowerback
    lhipjoint lfemur
    lfemur ltibia
    ltibia lfoot
    lfoot ltoes
    rhipjoint rfemur
    rfemur rtibia
    rtibia rfoot
    rfoot rtoes
    lowerback upperback
    upperback thorax
    thorax lowerneck lclavicle rclavicle
    lowerneck upperneck
    upperneck head
    lclavicle lhumerus
    lhumerus lradius
    lradius lwrist
    lwrist lhand lthumb
    lhand lfingers
    rclavicle rhumerus
    rhumerus rradius
    rradius rwrist
    rwrist rhand rthumb
    rhand rfingers
  end

#!OML:ASF H:\Bending\Project 1\Capture day 1\Session 1\Subject.ASF
:FULLY-SPECIFIED
:DEGREES
128
root -12.0231 18.0248 -16.8534 -16.9773 93.6345 -37.331
lowerback 36.3627 -1.93111 0.647174
upperback 9.75587 -0.805882 1.27804
thorax -7.26451 0.0840316 1.24867
lowerneck -23.0413 -3.7359 -7.39872
upperneck 4.89961 -3.75741 9.07156
head 5.46176 -1.23063 3.69956
rclavicle 1.19271e-014 -3.97569e-015
rhumerus 3.50119 25.8019 -80.4841
rradius 54.5166
rwrist -4.39399
rhand -20.9987 -23.8843
rfingers 7.12502
rthumb 5.37565 -53.7961
lclavicle 1.19271e-014 -3.97569e-015
lhumerus 0.218496 -33.832 84.0177
lradius 61.0688
lwrist 49.5003
lhand -34.9766 15.5748
lfingers 7.12502
lthumb -8.12214 45.3987
rfemur -32.6354 -12.8765 12.1627
rtibia 23.1241
rfoot -8.06081 -15.0927
rtoes -8.04077
lfemur -39.7645 -4.22928 -12.5598
ltibia 29.282
lfoot -10.3336 0.792355
ltoes -14.6378
129
root -11.9756 18.0556 -16.8571 -14.4304 93.3194 -34.0916
lowerback 35.0388 -1.86056 0.638682
upperback 9.43506 -0.835675 1.32229
thorax -7.27243 0.0346822 1.2998
lowerneck -23.2229 -3.75988 -7.501
upperneck 5.03704 -3.7879 9.35945
head 5.54648 -1.2179 3.80784
rclavicle -1.74931e-014 -1.19271e-015
rhumerus 1.07872 27.1362 -81.4172
rradius 54.9089
rwrist -4.54824
rhand -20.8083 -24.2578
rfingers 7.12502
rthumb 5.55941 -54.1649
lclavicle -1.74931e-014 -1.19271e-015
lhumerus -2.86812 -34.4311 85.1469
lradius 62.3275
lwrist 49.7768
lhand -35.3526 15.695
lfingers 7.12502
lthumb -8.48504 45.5045
rfemur -30.5448 -11.8626 12.1089
rtibia 21.1522
rfoot -7.5044 -15.7623
rtoes -7.78683
lfemur -38.3033 -4.8113 -12.0264
ltibia 28.4968
lfoot -10.5863 1.53707
ltoes -14.7685
130
root -11.9248 18.0839 -16.8594 -11.2778 93.0572 -30.3111
lowerback 33.7826 -1.76903 0.616822
upperback 8.99812 -0.837346 1.3973
thorax -7.29007 -0.00227902 1.38546
lowerneck -23.3962 -3.83063 -7.61815
upperneck 5.03703 -3.86969 9.68389
head 5.5924 -1.22717 3.92426
rclavicle 2.8625e-014 2.14687e-014
rhumerus -1.45972 28.5266 -82.2864
rradius 55.423
rwrist -5.08686
rhand -20.9814 -24.8171
rfingers 7.12502
rthumb 5.39227 -54.7285
lclavicle 2.8625e-014 2.14687e-014
lhumerus -5.78401 -35.0952 86.3938
lradius 63.409
lwrist 50.0984
lhand -35.8879 15.8744
lfingers 7.12502
lthumb -9.0016 45.6624
rfemur -28.4934 -10.9474 12.0915
rtibia 19.1263
rfoot -6.94691 -16.3739
rtoes -7.38567
lfemur -36.9183 -5.45424 -11.514
ltibia 27.725
lfoot -10.8561 2.30376
ltoes -15.1619
131
root -11.8716 18.1097 -16.86 -7.39622 92.8401 -25.8246
lowerback 32.2475 -1.66602 0.622302
upperback 8.9249 -0.815789 1.41416
thorax -7.45411 -0.0175977 1.48905
lowerneck -23.4683 -3.93288 -7.72524
upperneck 4.90242 -3.99837 10.0623
head 5.58676 -1.2575 4.05068
rclavicle -2.78299e-014 -2.72335e-014
rhumerus -4.21566 29.9242 -83.2195
rradius 56.0755
rwrist -6.03771
rhand -21.5524 -25.5492
rfingers 7.12502
rthumb 4.84096 -55.4739
lclavicle -2.78299e-014 -2.72335e-014
lhumerus -8.61278 -35.8389 87.7155
lradius 64.3585
lwrist 50.4542
lhand -36.5392 16.0987
lfingers 7.12502
lthumb -9.63004 45.8586
rfemur -26.4025 -10.0475 12.0871
rtibia 16.9955
rfoot -6.39118 -16.987
rtoes -6.64577
lfemur -35.5705 -6.17748 -11.0054
ltibia 26.9695
lfoot -11.1581 3.13758
ltoes -15.7276
132
root -11.8176 18.1356 -16.8518 -2.63086 92.5687 -20.6871
lowerback 30.8897 -1.43941 0.491258
upperback 8.25586 -0.687513 1.54491
thorax -7.5875 0.00158635 1.65453
lowerneck -23.2341 -4.02902 -7.84697
upperneck 4.65588 -4.12911 10.4444
head 5.50115 -1.29977 4.17955
rclavicle -2.98177e-015 -8.34896e-015
rhumerus -7.31297 31.3334 -84.2804
rradius 56.8451
rwrist -7.36269
rhand -22.4701 -26.449
rfingers 7.12502
rthumb 3.95486 -56.3921
lclavicle -2.98177e-015 -8.34896e-015
lhumerus -11.5631 -36.5753 89.2511
lradius 65.232
lwrist 50.8127
lhand -37.2288 16.3485
lfingers 7.12502
lthumb -10.2953 46.0765
rfemur -24.4929 -8.92181 12.1232
rtibia 14.6958
rfoot -5.79567 -17.7559
rtoes -5.37297
lfemur -34.4767 -6.77942 -10.4627
ltibia 26.2388
lfoot -11.4618 3.9898
ltoes -16.2801
133
root -11.7596 18.1597 -16.8399 2.79747 92.3527 -14.7725
lowerback 29.4756 -1.21191 0.319538
upperback 7.7223 -0.545064 1.68579
thorax -7.52236 0.0355596 1.84818
lowerneck -23.0772 -4.13306 -7.95983
upperneck 4.37015 -4.26079 10.8279
head 5.41582 -1.34014 4.30734
rclavicle 2.5842e-015 -1.43125e-014
rhumerus -10.2694 32.6778 -85.3283
rradius 57.6562
rwrist -8.94053
rhand -23.5871 -27.5033
rfingers 7.12502
rthumb 2.87616 -57.4637
lclavicle 2.5842e-015 -1.43125e-014
lhumerus -14.2104 -37.2475 90.6652
lradius 66.053
lwrist 51.1931
lhand -37.8584 16.6038
lfingers 7.12502
lthumb -10.9027 46.3008
rfemur -22.2739 -7.6049 12.0958
rtibia 12.1361
rfoot -5.20443 -18.7117
rtoes -3.56907
lfemur -33.2624 -7.40888 -9.96945
ltibia 25.5422
lfoot -11.8089 4.82109
ltoes -16.6426
134
root -11.6983 18.1794 -16.8285 8.0437 92.2295 -8.91224
lowerback 28.1467 -1.02364 0.152054
upperback 7.26495 -0.429577 1.81992
thorax -7.39634 0.0633459 2.04243
lowerneck -23.0379 -4.22512 -8.05057
upperneck 4.19173 -4.37732 11.1681
head 5.37962 -1.3721 4.41975
rclavicle 8.94531e-015 -6.55989e-015
rhumerus -13.1205 33.9107 -86.4009
rradius 58.5094
rwrist -10.5645
rhand -24.704 -28.674
rfingers 7.12502
rthumb 1.7974 -58.6461
lclavicle 8.94531e-015 -6.55989e-015
lhumerus -16.661 -37.7969 91.9811
lradius 66.8604
lwrist 51.5766
lhand -38.326 16.8226
lfingers 7.12502
lthumb -11.3537 46.4953
rfemur -19.6972 -7.31716 12.4047
rtibia 9.157
rfoot -4.52994 -18.6286
rtoes -1.43748
lfemur -31.9358 -8.07819 -9.57844
ltibia 24.891
lfoot -12.1732 5.57881
ltoes -16.7494
